<svg xmlns="http://www.w3.org/2000/svg" viewBox="0 0 1280 720" shape-rendering="crispEdges" image-rendering="pixelated" preserveAspectRatio="xMidYMid slice"><rect x="0" y="0" width="1280" height="400" fill="#1a2342"></rect><rect x="0" y="0" width="1280" height="48" fill="#0d1428"></rect><rect x="0" y="48" width="1280" height="32" fill="#1a2342"></rect><rect x="0" y="280" width="1280" height="120" fill="#2a3458"></rect><rect x="80" y="32" width="4" height="4" fill="#f5f3e0"></rect><rect x="180" y="60" width="4" height="4" fill="#f5f3e0"></rect><rect x="280" y="20" width="4" height="4" fill="#f5f3e0"></rect><rect x="400" y="48" width="4" height="4" fill="#f5f3e0"></rect><rect x="520" y="32" width="4" height="4" fill="#f5f3e0"></rect><rect x="640" y="72" width="4" height="4" fill="#f5f3e0"></rect><rect x="800" y="40" width="4" height="4" fill="#f5f3e0"></rect><rect x="960" y="24" width="4" height="4" fill="#f5f3e0"></rect><rect x="1080" y="56" width="4" height="4" fill="#f5f3e0"></rect><rect x="1200" y="80" width="4" height="4" fill="#f5f3e0"></rect><rect x="200" y="120" width="4" height="4" fill="#f5f3e0"></rect><rect x="340" y="100" width="4" height="4" fill="#f5f3e0"></rect><rect x="460" y="128" width="4" height="4" fill="#f5f3e0"></rect><rect x="720" y="112" width="4" height="4" fill="#f5f3e0"></rect><rect x="880" y="140" width="4" height="4" fill="#f5f3e0"></rect><rect x="1120" y="120" width="4" height="4" fill="#f5f3e0"></rect><rect x="100" y="180" width="4" height="4" fill="#f5f3e0"></rect><rect x="260" y="200" width="4" height="4" fill="#f5f3e0"></rect><rect x="480" y="220" width="4" height="4" fill="#f5f3e0"></rect><rect x="780" y="200" width="4" height="4" fill="#f5f3e0"></rect><rect x="1020" y="220" width="4" height="4" fill="#f5f3e0"></rect><rect x="1240" y="192" width="4" height="4" fill="#f5f3e0"></rect><rect x="160" y="260" width="4" height="4" fill="#f5f3e0"></rect><rect x="620" y="240" width="4" height="4" fill="#f5f3e0"></rect><rect x="900" y="272" width="4" height="4" fill="#f5f3e0"></rect><rect x="300" y="80" width="8" height="8" fill="#f5f3e0"></rect><rect x="680" y="180" width="8" height="8" fill="#f5f3e0"></rect><rect x="1060" y="100" width="8" height="8" fill="#f5f3e0"></rect><rect x="940" y="96" width="56" height="40" fill="#f5f3e0"></rect><rect x="932" y="104" width="72" height="24" fill="#f5f3e0"></rect><rect x="936" y="100" width="64" height="32" fill="#f5f3e0"></rect><rect x="944" y="92" width="48" height="48" fill="#f5f3e0"></rect><rect x="972" y="100" width="16" height="32" fill="#e8e3c5"></rect><rect x="980" y="96" width="8" height="40" fill="#e8e3c5"></rect><rect x="160" y="140" width="140" height="12" fill="#4a5478"></rect><rect x="168" y="136" width="124" height="4" fill="#4a5478"></rect><rect x="176" y="132" width="108" height="4" fill="#4a5478"></rect><rect x="168" y="152" width="124" height="4" fill="#4a5478"></rect><rect x="172" y="140" width="116" height="4" fill="#5a6488"></rect><rect x="440" y="112" width="112" height="12" fill="#4a5478"></rect><rect x="448" y="108" width="96" height="4" fill="#4a5478"></rect><rect x="456" y="104" width="80" height="4" fill="#4a5478"></rect><rect x="448" y="124" width="96" height="4" fill="#4a5478"></rect><rect x="452" y="112" width="88" height="4" fill="#5a6488"></rect><rect x="680" y="240" width="160" height="12" fill="#4a5478"></rect><rect x="688" y="236" width="144" height="4" fill="#4a5478"></rect><rect x="696" y="232" width="128" height="4" fill="#4a5478"></rect><rect x="688" y="252" width="144" height="4" fill="#4a5478"></rect><rect x="692" y="240" width="136" height="4" fill="#5a6488"></rect><rect x="1040" y="200" width="120" height="12" fill="#4a5478"></rect><rect x="1048" y="196" width="104" height="4" fill="#4a5478"></rect><rect x="1056" y="192" width="88" height="4" fill="#4a5478"></rect><rect x="1048" y="212" width="104" height="4" fill="#4a5478"></rect><rect x="1052" y="200" width="96" height="4" fill="#5a6488"></rect><rect x="40" y="320" width="100" height="12" fill="#4a5478"></rect><rect x="48" y="316" width="84" height="4" fill="#4a5478"></rect><rect x="56" y="312" width="68" height="4" fill="#4a5478"></rect><rect x="48" y="332" width="84" height="4" fill="#4a5478"></rect><rect x="52" y="320" width="76" height="4" fill="#5a6488"></rect><rect x="360" y="340" width="140" height="12" fill="#4a5478"></rect><rect x="368" y="336" width="124" height="4" fill="#4a5478"></rect><rect x="376" y="332" width="108" height="4" fill="#4a5478"></rect><rect x="368" y="352" width="124" height="4" fill="#4a5478"></rect><rect x="372" y="340" width="116" height="4" fill="#5a6488"></rect><rect x="880" y="280" width="48" height="100" fill="#2a3458"></rect><rect x="872" y="300" width="64" height="24" fill="#2a3458"></rect><rect x="888" y="240" width="32" height="40" fill="#2a3458"></rect><rect x="896" y="200" width="16" height="40" fill="#2a3458"></rect><rect x="900" y="120" width="8" height="80" fill="#876C5A"></rect><rect x="892" y="112" width="24" height="8" fill="#2a3458"></rect><rect x="896" y="312" width="4" height="4" fill="#f5b830"></rect><rect x="912" y="312" width="4" height="4" fill="#f5b830"></rect><rect x="896" y="328" width="4" height="4" fill="#f5b830"></rect><rect x="912" y="336" width="4" height="4" fill="#f5b830"></rect><rect x="960" y="320" width="56" height="72" fill="#1f284a"></rect><rect x="968" y="328" width="4" height="4" fill="#f5b830"></rect><rect x="980" y="328" width="4" height="4" fill="#f5b830"></rect><rect x="992" y="328" width="4" height="4" fill="#f5b830"></rect><rect x="1004" y="328" width="4" height="4" fill="#c47a1a"></rect><rect x="968" y="340" width="4" height="4" fill="#f5b830"></rect><rect x="980" y="340" width="4" height="4" fill="#c47a1a"></rect><rect x="992" y="340" width="4" height="4" fill="#f5b830"></rect><rect x="1004" y="340" width="4" height="4" fill="#f5b830"></rect><rect x="968" y="352" width="4" height="4" fill="#f5b830"></rect><rect x="980" y="352" width="4" height="4" fill="#f5b830"></rect><rect x="992" y="352" width="4" height="4" fill="#c47a1a"></rect><rect x="1004" y="352" width="4" height="4" fill="#f5b830"></rect><rect x="968" y="364" width="4" height="4" fill="#c47a1a"></rect><rect x="980" y="364" width="4" height="4" fill="#f5b830"></rect><rect x="992" y="364" width="4" height="4" fill="#f5b830"></rect><rect x="1004" y="364" width="4" height="4" fill="#f5b830"></rect><rect x="1020" y="280" width="40" height="112" fill="#2a3458"></rect><rect x="1028" y="292" width="4" height="4" fill="#f5b830"></rect><rect x="1040" y="292" width="4" height="4" fill="#f5b830"></rect><rect x="1052" y="292" width="4" height="4" fill="#c47a1a"></rect><rect x="1028" y="304" width="4" height="4" fill="#c47a1a"></rect><rect x="1040" y="304" width="4" height="4" fill="#f5b830"></rect><rect x="1052" y="304" width="4" height="4" fill="#f5b830"></rect><rect x="1028" y="316" width="4" height="4" fill="#f5b830"></rect><rect x="1040" y="316" width="4" height="4" fill="#f5b830"></rect><rect x="1052" y="316" width="4" height="4" fill="#f5b830"></rect><rect x="1028" y="328" width="4" height="4" fill="#f5b830"></rect><rect x="1040" y="328" width="4" height="4" fill="#c47a1a"></rect><rect x="1052" y="328" width="4" height="4" fill="#f5b830"></rect><rect x="1028" y="340" width="4" height="4" fill="#f5b830"></rect><rect x="1040" y="340" width="4" height="4" fill="#f5b830"></rect><rect x="1052" y="340" width="4" height="4" fill="#f5b830"></rect><rect x="1028" y="352" width="4" height="4" fill="#c47a1a"></rect><rect x="1040" y="352" width="4" height="4" fill="#f5b830"></rect><rect x="1052" y="352" width="4" height="4" fill="#c47a1a"></rect><rect x="1028" y="364" width="4" height="4" fill="#f5b830"></rect><rect x="1040" y="364" width="4" height="4" fill="#f5b830"></rect><rect x="1052" y="364" width="4" height="4" fill="#f5b830"></rect><rect x="1072" y="336" width="36" height="56" fill="#1f284a"></rect><rect x="1080" y="344" width="4" height="4" fill="#f5b830"></rect><rect x="1092" y="344" width="4" height="4" fill="#f5b830"></rect><rect x="1100" y="344" width="4" height="4" fill="#c47a1a"></rect><rect x="1080" y="360" width="4" height="4" fill="#f5b830"></rect><rect x="1092" y="360" width="4" height="4" fill="#f5b830"></rect><rect x="1100" y="360" width="4" height="4" fill="#f5b830"></rect><rect x="1080" y="376" width="4" height="4" fill="#f5b830"></rect><rect x="1092" y="376" width="4" height="4" fill="#c47a1a"></rect><rect x="1100" y="376" width="4" height="4" fill="#f5b830"></rect><rect x="1120" y="304" width="44" height="88" fill="#2a3458"></rect><rect x="1128" y="320" width="4" height="4" fill="#f5b830"></rect><rect x="1140" y="320" width="4" height="4" fill="#f5b830"></rect><rect x="1152" y="320" width="4" height="4" fill="#f5b830"></rect><rect x="1128" y="332" width="4" height="4" fill="#f5b830"></rect><rect x="1140" y="332" width="4" height="4" fill="#c47a1a"></rect><rect x="1152" y="332" width="4" height="4" fill="#f5b830"></rect><rect x="1128" y="348" width="4" height="4" fill="#f5b830"></rect><rect x="1140" y="348" width="4" height="4" fill="#f5b830"></rect><rect x="1152" y="348" width="4" height="4" fill="#c47a1a"></rect><rect x="1128" y="364" width="4" height="4" fill="#f5b830"></rect><rect x="1140" y="364" width="4" height="4" fill="#f5b830"></rect><rect x="1152" y="364" width="4" height="4" fill="#f5b830"></rect><rect x="0" y="0" width="400" height="400" fill="#3d2418"></rect><rect x="1180" y="0" width="100" height="400" fill="#3d2418"></rect><rect x="404" y="16" width="784" height="16" fill="#4f3a2e"></rect><rect x="404" y="400" width="784" height="16" fill="#4f3a2e"></rect><rect x="404" y="32" width="16" height="368" fill="#4f3a2e"></rect><rect x="1172" y="32" width="16" height="368" fill="#4f3a2e"></rect><rect x="412" y="24" width="768" height="8" fill="#876C5A"></rect><rect x="412" y="400" width="768" height="8" fill="#876C5A"></rect><rect x="412" y="32" width="8" height="368" fill="#876C5A"></rect><rect x="1172" y="32" width="8" height="368" fill="#876C5A"></rect><rect x="788" y="32" width="16" height="368" fill="#876C5A"></rect><rect x="792" y="32" width="8" height="368" fill="#4f3a2e"></rect><rect x="0" y="400" width="1280" height="320" fill="#5c3a28"></rect><rect x="0" y="400" width="1280" height="16" fill="#7a4f38"></rect><rect x="0" y="440" width="1280" height="4" fill="#4a2c1e"></rect><rect x="0" y="500" width="1280" height="4" fill="#4a2c1e"></rect><rect x="0" y="560" width="1280" height="4" fill="#4a2c1e"></rect><rect x="0" y="620" width="1280" height="4" fill="#4a2c1e"></rect><rect x="0" y="680" width="1280" height="4" fill="#4a2c1e"></rect><rect x="240" y="400" width="4" height="320" fill="#4a2c1e"></rect><rect x="480" y="400" width="4" height="320" fill="#4a2c1e"></rect><rect x="720" y="400" width="4" height="320" fill="#4a2c1e"></rect><rect x="960" y="400" width="4" height="320" fill="#4a2c1e"></rect><rect x="0" y="396" width="1280" height="8" fill="#4f3424"></rect><rect x="0" y="404" width="1280" height="4" fill="#3d2418"></rect><rect x="440" y="560" width="400" height="88" fill="#1F1410"></rect><rect x="440" y="560" width="400" height="8" fill="#3D2B23"></rect><rect x="440" y="640" width="400" height="8" fill="#0E0C20"></rect><rect x="456" y="576" width="20" height="12" fill="#F5E6D3"></rect><rect x="484" y="576" width="20" height="12" fill="#F5E6D3"></rect><rect x="512" y="576" width="20" height="12" fill="#F5E6D3"></rect><rect x="540" y="576" width="20" height="12" fill="#F5E6D3"></rect><rect x="568" y="576" width="20" height="12" fill="#F5E6D3"></rect><rect x="596" y="576" width="20" height="12" fill="#F5E6D3"></rect><rect x="624" y="576" width="20" height="12" fill="#F5E6D3"></rect><rect x="652" y="576" width="20" height="12" fill="#F5E6D3"></rect><rect x="680" y="576" width="20" height="12" fill="#F5E6D3"></rect><rect x="708" y="576" width="20" height="12" fill="#F5E6D3"></rect><rect x="736" y="576" width="20" height="12" fill="#F5E6D3"></rect><rect x="764" y="576" width="20" height="12" fill="#F5E6D3"></rect><rect x="792" y="576" width="20" height="12" fill="#F5E6D3"></rect><rect x="820" y="576" width="20" height="12" fill="#F5E6D3"></rect><rect x="456" y="596" width="20" height="12" fill="#F5E6D3"></rect><rect x="484" y="596" width="20" height="12" fill="#F5E6D3"></rect><rect x="512" y="596" width="20" height="12" fill="#F5E6D3"></rect><rect x="540" y="596" width="20" height="12" fill="#F5E6D3"></rect><rect x="568" y="596" width="20" height="12" fill="#F5E6D3"></rect><rect x="596" y="596" width="20" height="12" fill="#F5E6D3"></rect><rect x="624" y="596" width="20" height="12" fill="#F5E6D3"></rect><rect x="652" y="596" width="20" height="12" fill="#F5E6D3"></rect><rect x="680" y="596" width="20" height="12" fill="#F5E6D3"></rect><rect x="708" y="596" width="20" height="12" fill="#F5E6D3"></rect><rect x="736" y="596" width="20" height="12" fill="#F5E6D3"></rect><rect x="764" y="596" width="20" height="12" fill="#F5E6D3"></rect><rect x="792" y="596" width="20" height="12" fill="#F5E6D3"></rect><rect x="820" y="596" width="20" height="12" fill="#F5E6D3"></rect><rect x="456" y="616" width="20" height="12" fill="#F5E6D3"></rect><rect x="484" y="616" width="20" height="12" fill="#F5E6D3"></rect><rect x="512" y="616" width="20" height="12" fill="#F5E6D3"></rect><rect x="540" y="616" width="20" height="12" fill="#F5E6D3"></rect><rect x="568" y="616" width="20" height="12" fill="#F5E6D3"></rect><rect x="596" y="616" width="20" height="12" fill="#F5E6D3"></rect><rect x="624" y="616" width="20" height="12" fill="#F5E6D3"></rect><rect x="652" y="616" width="20" height="12" fill="#F5E6D3"></rect><rect x="680" y="616" width="20" height="12" fill="#F5E6D3"></rect><rect x="708" y="616" width="20" height="12" fill="#F5E6D3"></rect><rect x="736" y="616" width="20" height="12" fill="#F5E6D3"></rect><rect x="764" y="616" width="20" height="12" fill="#F5E6D3"></rect><rect x="792" y="616" width="20" height="12" fill="#F5E6D3"></rect><rect x="820" y="616" width="20" height="12" fill="#F5E6D3"></rect><rect x="540" y="636" width="200" height="4" fill="#F5E6D3"></rect><rect x="860" y="580" width="40" height="56" fill="#F5E6D3"></rect><rect x="856" y="588" width="4" height="40" fill="#1F1410"></rect><rect x="900" y="588" width="4" height="40" fill="#1F1410"></rect><rect x="868" y="576" width="24" height="4" fill="#1F1410"></rect><rect x="868" y="636" width="24" height="4" fill="#1F1410"></rect><rect x="876" y="572" width="8" height="8" fill="#1F1410"></rect><rect x="880" y="564" width="4" height="8" fill="#1F1410"></rect><rect x="876" y="556" width="8" height="8" fill="#1F1410"></rect><rect x="872" y="552" width="4" height="4" fill="#1F1410"></rect><rect x="964" y="608" width="88" height="16" fill="#F5E6D3"></rect><rect x="960" y="612" width="96" height="8" fill="#C4A88E"></rect><rect x="968" y="604" width="72" height="4" fill="#C4A88E"></rect><rect x="960" y="624" width="96" height="4" fill="#0E0C20"></rect><rect x="980" y="520" width="56" height="88" fill="#F5E6D3"></rect><rect x="976" y="528" width="4" height="72" fill="#0E0C20"></rect><rect x="1036" y="528" width="4" height="72" fill="#0E0C20"></rect><rect x="980" y="516" width="56" height="4" fill="#0E0C20"></rect><rect x="984" y="520" width="48" height="8" fill="#C4A88E"></rect><rect x="984" y="528" width="48" height="12" fill="#3D2418"></rect><rect x="1036" y="544" width="16" height="8" fill="#F5E6D3"></rect><rect x="1044" y="552" width="8" height="24" fill="#F5E6D3"></rect><rect x="1036" y="576" width="16" height="8" fill="#F5E6D3"></rect><rect x="1040" y="544" width="4" height="4" fill="#0E0C20"></rect><rect x="1052" y="552" width="4" height="24" fill="#0E0C20"></rect><rect x="1040" y="580" width="4" height="4" fill="#0E0C20"></rect><rect x="992" y="500" width="4" height="12" fill="#4a5478"></rect><rect x="996" y="492" width="4" height="8" fill="#4a5478"></rect><rect x="1008" y="508" width="4" height="12" fill="#4a5478"></rect><rect x="1012" y="496" width="4" height="12" fill="#4a5478"></rect><rect x="1024" y="504" width="4" height="12" fill="#4a5478"></rect><rect x="100" y="500" width="96" height="72" fill="#876C5A"></rect><rect x="100" y="500" width="96" height="12" fill="#5C3A28"></rect><rect x="96" y="500" width="4" height="72" fill="#0E0C20"></rect><rect x="196" y="500" width="4" height="72" fill="#0E0C20"></rect><rect x="100" y="572" width="96" height="4" fill="#0E0C20"></rect><rect x="108" y="520" width="4" height="48" fill="#3D2418"></rect><rect x="112" y="452" width="24" height="56" fill="#5BAFA8"></rect><rect x="108" y="460" width="4" height="40" fill="#5BAFA8"></rect><rect x="136" y="460" width="4" height="40" fill="#5BAFA8"></rect><rect x="116" y="444" width="16" height="8" fill="#5BAFA8"></rect><rect x="112" y="452" width="8" height="48" fill="#3d7e78"></rect><rect x="136" y="468" width="16" height="12" fill="#5BAFA8"></rect><rect x="152" y="456" width="12" height="24" fill="#5BAFA8"></rect><rect x="144" y="468" width="4" height="4" fill="#3d7e78"></rect><rect x="164" y="436" width="24" height="72" fill="#5BAFA8"></rect><rect x="160" y="444" width="4" height="56" fill="#5BAFA8"></rect><rect x="188" y="444" width="4" height="56" fill="#5BAFA8"></rect><rect x="168" y="428" width="16" height="8" fill="#5BAFA8"></rect><rect x="164" y="436" width="8" height="64" fill="#3d7e78"></rect><rect x="120" y="460" width="4" height="4" fill="#0E0C20"></rect><rect x="120" y="476" width="4" height="4" fill="#0E0C20"></rect><rect x="120" y="492" width="4" height="4" fill="#0E0C20"></rect><rect x="172" y="452" width="4" height="4" fill="#0E0C20"></rect><rect x="172" y="468" width="4" height="4" fill="#0E0C20"></rect><rect x="172" y="484" width="4" height="4" fill="#0E0C20"></rect><rect x="220" y="488" width="48" height="48" fill="#876C5A"></rect><rect x="220" y="488" width="48" height="8" fill="#5C3A28"></rect><rect x="216" y="488" width="4" height="48" fill="#0E0C20"></rect><rect x="268" y="488" width="4" height="48" fill="#0E0C20"></rect><rect x="220" y="536" width="48" height="4" fill="#0E0C20"></rect><rect x="232" y="464" width="16" height="32" fill="#5BAFA8"></rect><rect x="232" y="464" width="4" height="24" fill="#3d7e78"></rect><rect x="240" y="472" width="4" height="4" fill="#0E0C20"></rect><rect x="240" y="484" width="4" height="4" fill="#0E0C20"></rect><rect x="40" y="32" width="96" height="72" fill="#876C5A"></rect><rect x="48" y="40" width="80" height="56" fill="#4f3a2e"></rect><rect x="52" y="44" width="72" height="48" fill="#5BAFA8"></rect><rect x="60" y="56" width="56" height="24" fill="#1F1410"></rect><rect x="68" y="64" width="12" height="8" fill="#E27D60"></rect><rect x="100" y="64" width="12" height="8" fill="#E8B14A"></rect><rect x="32" y="120" width="72" height="72" fill="#876C5A"></rect><rect x="40" y="128" width="56" height="56" fill="#F5E6D3"></rect><rect x="48" y="140" width="12" height="8" fill="#E27D60"></rect><rect x="60" y="140" width="12" height="8" fill="#E27D60"></rect><rect x="48" y="148" width="24" height="8" fill="#E27D60"></rect><rect x="52" y="156" width="16" height="4" fill="#E27D60"></rect><rect x="56" y="160" width="8" height="4" fill="#E27D60"></rect><rect x="128" y="120" width="40" height="40" fill="#F5E6D3"></rect><rect x="136" y="128" width="24" height="4" fill="#0E0C20"></rect><rect x="136" y="140" width="24" height="4" fill="#0E0C20"></rect><rect x="136" y="148" width="16" height="4" fill="#0E0C20"></rect><rect x="144" y="112" width="8" height="8" fill="#0E0C20"></rect><rect x="128" y="180" width="40" height="40" fill="#E8B14A"></rect><rect x="136" y="188" width="24" height="4" fill="#0E0C20"></rect><rect x="136" y="200" width="24" height="4" fill="#0E0C20"></rect><rect x="144" y="172" width="8" height="8" fill="#0E0C20"></rect><rect x="128" y="240" width="40" height="40" fill="#E27D60"></rect><rect x="136" y="248" width="24" height="4" fill="#0E0C20"></rect><rect x="136" y="260" width="20" height="4" fill="#0E0C20"></rect><rect x="144" y="232" width="8" height="8" fill="#0E0C20"></rect><rect x="32" y="220" width="88" height="112" fill="#F5E6D3"></rect><rect x="40" y="228" width="72" height="56" fill="#1F1410"></rect><rect x="44" y="236" width="24" height="20" fill="#5BAFA8"></rect><rect x="52" y="240" width="16" height="12" fill="#E8B14A"></rect><rect x="40" y="292" width="56" height="4" fill="#0E0C20"></rect><rect x="40" y="304" width="64" height="4" fill="#0E0C20"></rect><rect x="40" y="316" width="40" height="4" fill="#0E0C20"></rect><rect x="68" y="208" width="8" height="12" fill="#0E0C20"></rect><rect x="1100" y="632" width="120" height="72" fill="#E27D60"></rect><rect x="1100" y="632" width="120" height="8" fill="#E27D60"></rect><rect x="1096" y="632" width="4" height="72" fill="#0E0C20"></rect><rect x="1220" y="632" width="4" height="72" fill="#0E0C20"></rect><rect x="1100" y="704" width="120" height="4" fill="#0E0C20"></rect><rect x="1100" y="640" width="120" height="4" fill="#0E0C20"></rect><rect x="1112" y="640" width="4" height="8" fill="#1F1410"></rect><rect x="1124" y="640" width="4" height="8" fill="#1F1410"></rect><rect x="1136" y="640" width="4" height="8" fill="#1F1410"></rect><rect x="1148" y="640" width="4" height="8" fill="#1F1410"></rect><rect x="1160" y="640" width="4" height="8" fill="#1F1410"></rect><rect x="1172" y="640" width="4" height="8" fill="#1F1410"></rect><rect x="1184" y="640" width="4" height="8" fill="#1F1410"></rect><rect x="1196" y="640" width="4" height="8" fill="#1F1410"></rect><rect x="1120" y="664" width="72" height="8" fill="#E8B14A"></rect><rect x="1120" y="664" width="72" height="4" fill="#f5b830"></rect><rect x="1116" y="664" width="4" height="8" fill="#0E0C20"></rect><rect x="1188" y="664" width="8" height="8" fill="#E27D60"></rect><rect x="1196" y="668" width="4" height="4" fill="#0E0C20"></rect><rect x="20" y="608" width="88" height="20" fill="#E27D60"></rect><rect x="20" y="608" width="88" height="4" fill="#E27D60"></rect><rect x="20" y="628" width="88" height="4" fill="#0E0C20"></rect><rect x="28" y="588" width="96" height="20" fill="#5BAFA8"></rect><rect x="28" y="588" width="96" height="4" fill="#7DCFC6"></rect><rect x="28" y="608" width="96" height="4" fill="#0E0C20"></rect><rect x="24" y="588" width="4" height="20" fill="#0E0C20"></rect><rect x="124" y="588" width="4" height="20" fill="#0E0C20"></rect><rect x="16" y="568" width="92" height="20" fill="#A87B9D"></rect><rect x="16" y="568" width="92" height="4" fill="#A87B9D"></rect><rect x="16" y="588" width="92" height="4" fill="#0E0C20"></rect><rect x="12" y="568" width="4" height="20" fill="#0E0C20"></rect><rect x="108" y="568" width="4" height="20" fill="#0E0C20"></rect><rect x="480" y="400" width="320" height="4" fill="#7a4f38"></rect></svg>