<svg xmlns="http://www.w3.org/2000/svg" viewBox="0 0 128 128" shape-rendering="crispEdges" image-rendering="pixelated"><rect x="16" y="8" width="8" height="8" fill="#0E0C20"></rect><rect x="24" y="8" width="8" height="8" fill="#0E0C20"></rect><rect x="96" y="8" width="8" height="8" fill="#0E0C20"></rect><rect x="104" y="8" width="8" height="8" fill="#0E0C20"></rect><rect x="8" y="16" width="8" height="8" fill="#0E0C20"></rect><rect x="16" y="16" width="8" height="8" fill="#5BAFA8"></rect><rect x="24" y="16" width="8" height="8" fill="#7DCFC6"></rect><rect x="32" y="16" width="8" height="8" fill="#0E0C20"></rect><rect x="88" y="16" width="8" height="8" fill="#0E0C20"></rect><rect x="96" y="16" width="8" height="8" fill="#5BAFA8"></rect><rect x="104" y="16" width="8" height="8" fill="#7DCFC6"></rect><rect x="112" y="16" width="8" height="8" fill="#0E0C20"></rect><rect x="0" y="24" width="8" height="8" fill="#0E0C20"></rect><rect x="8" y="24" width="8" height="8" fill="#5BAFA8"></rect><rect x="16" y="24" width="8" height="8" fill="#7DCFC6"></rect><rect x="24" y="24" width="8" height="8" fill="#7DCFC6"></rect><rect x="32" y="24" width="8" height="8" fill="#0E0C20"></rect><rect x="40" y="24" width="8" height="8" fill="#0E0C20"></rect><rect x="48" y="24" width="8" height="8" fill="#0E0C20"></rect><rect x="56" y="24" width="8" height="8" fill="#0E0C20"></rect><rect x="64" y="24" width="8" height="8" fill="#0E0C20"></rect><rect x="72" y="24" width="8" height="8" fill="#0E0C20"></rect><rect x="80" y="24" width="8" height="8" fill="#0E0C20"></rect><rect x="88" y="24" width="8" height="8" fill="#0E0C20"></rect><rect x="96" y="24" width="8" height="8" fill="#5BAFA8"></rect><rect x="104" y="24" width="8" height="8" fill="#7DCFC6"></rect><rect x="112" y="24" width="8" height="8" fill="#7DCFC6"></rect><rect x="120" y="24" width="8" height="8" fill="#0E0C20"></rect><rect x="0" y="32" width="8" height="8" fill="#0E0C20"></rect><rect x="8" y="32" width="8" height="8" fill="#5BAFA8"></rect><rect x="16" y="32" width="8" height="8" fill="#7DCFC6"></rect><rect x="24" y="32" width="8" height="8" fill="#7DCFC6"></rect><rect x="32" y="32" width="8" height="8" fill="#7DCFC6"></rect><rect x="40" y="32" width="8" height="8" fill="#7DCFC6"></rect><rect x="48" y="32" width="8" height="8" fill="#7DCFC6"></rect><rect x="56" y="32" width="8" height="8" fill="#7DCFC6"></rect><rect x="64" y="32" width="8" height="8" fill="#7DCFC6"></rect><rect x="72" y="32" width="8" height="8" fill="#7DCFC6"></rect><rect x="80" y="32" width="8" height="8" fill="#7DCFC6"></rect><rect x="88" y="32" width="8" height="8" fill="#7DCFC6"></rect><rect x="96" y="32" width="8" height="8" fill="#7DCFC6"></rect><rect x="104" y="32" width="8" height="8" fill="#7DCFC6"></rect><rect x="112" y="32" width="8" height="8" fill="#3D7E78"></rect><rect x="120" y="32" width="8" height="8" fill="#0E0C20"></rect><rect x="0" y="40" width="8" height="8" fill="#0E0C20"></rect><rect x="8" y="40" width="8" height="8" fill="#7DCFC6"></rect><rect x="16" y="40" width="8" height="8" fill="#7DCFC6"></rect><rect x="24" y="40" width="8" height="8" fill="#7DCFC6"></rect><rect x="32" y="40" width="8" height="8" fill="#7DCFC6"></rect><rect x="40" y="40" width="8" height="8" fill="#7DCFC6"></rect><rect x="48" y="40" width="8" height="8" fill="#7DCFC6"></rect><rect x="56" y="40" width="8" height="8" fill="#7DCFC6"></rect><rect x="64" y="40" width="8" height="8" fill="#7DCFC6"></rect><rect x="72" y="40" width="8" height="8" fill="#7DCFC6"></rect><rect x="80" y="40" width="8" height="8" fill="#7DCFC6"></rect><rect x="88" y="40" width="8" height="8" fill="#7DCFC6"></rect><rect x="96" y="40" width="8" height="8" fill="#7DCFC6"></rect><rect x="104" y="40" width="8" height="8" fill="#7DCFC6"></rect><rect x="112" y="40" width="8" height="8" fill="#3D7E78"></rect><rect x="120" y="40" width="8" height="8" fill="#0E0C20"></rect><rect x="0" y="48" width="8" height="8" fill="#0E0C20"></rect><rect x="8" y="48" width="8" height="8" fill="#7DCFC6"></rect><rect x="16" y="48" width="8" height="8" fill="#7DCFC6"></rect><rect x="24" y="48" width="8" height="8" fill="#7DCFC6"></rect><rect x="32" y="48" width="8" height="8" fill="#0E0C20"></rect><rect x="40" y="48" width="8" height="8" fill="#F5E6D3"></rect><rect x="48" y="48" width="8" height="8" fill="#F5E6D3"></rect><rect x="56" y="48" width="8" height="8" fill="#0E0C20"></rect><rect x="64" y="48" width="8" height="8" fill="#7DCFC6"></rect><rect x="72" y="48" width="8" height="8" fill="#7DCFC6"></rect><rect x="80" y="48" width="8" height="8" fill="#0E0C20"></rect><rect x="88" y="48" width="8" height="8" fill="#F5E6D3"></rect><rect x="96" y="48" width="8" height="8" fill="#F5E6D3"></rect><rect x="104" y="48" width="8" height="8" fill="#0E0C20"></rect><rect x="112" y="48" width="8" height="8" fill="#7DCFC6"></rect><rect x="120" y="48" width="8" height="8" fill="#0E0C20"></rect><rect x="0" y="56" width="8" height="8" fill="#0E0C20"></rect><rect x="8" y="56" width="8" height="8" fill="#7DCFC6"></rect><rect x="16" y="56" width="8" height="8" fill="#7DCFC6"></rect><rect x="24" y="56" width="8" height="8" fill="#7DCFC6"></rect><rect x="32" y="56" width="8" height="8" fill="#0E0C20"></rect><rect x="40" y="56" width="8" height="8" fill="#F5E6D3"></rect><rect x="48" y="56" width="8" height="8" fill="#15132A"></rect><rect x="56" y="56" width="8" height="8" fill="#0E0C20"></rect><rect x="64" y="56" width="8" height="8" fill="#7DCFC6"></rect><rect x="72" y="56" width="8" height="8" fill="#7DCFC6"></rect><rect x="80" y="56" width="8" height="8" fill="#0E0C20"></rect><rect x="88" y="56" width="8" height="8" fill="#F5E6D3"></rect><rect x="96" y="56" width="8" height="8" fill="#15132A"></rect><rect x="104" y="56" width="8" height="8" fill="#0E0C20"></rect><rect x="112" y="56" width="8" height="8" fill="#7DCFC6"></rect><rect x="120" y="56" width="8" height="8" fill="#0E0C20"></rect><rect x="0" y="64" width="8" height="8" fill="#0E0C20"></rect><rect x="8" y="64" width="8" height="8" fill="#7DCFC6"></rect><rect x="16" y="64" width="8" height="8" fill="#7DCFC6"></rect><rect x="24" y="64" width="8" height="8" fill="#7DCFC6"></rect><rect x="32" y="64" width="8" height="8" fill="#7DCFC6"></rect><rect x="40" y="64" width="8" height="8" fill="#7DCFC6"></rect><rect x="48" y="64" width="8" height="8" fill="#7DCFC6"></rect><rect x="56" y="64" width="8" height="8" fill="#7DCFC6"></rect><rect x="64" y="64" width="8" height="8" fill="#7DCFC6"></rect><rect x="72" y="64" width="8" height="8" fill="#7DCFC6"></rect><rect x="80" y="64" width="8" height="8" fill="#7DCFC6"></rect><rect x="88" y="64" width="8" height="8" fill="#7DCFC6"></rect><rect x="96" y="64" width="8" height="8" fill="#7DCFC6"></rect><rect x="104" y="64" width="8" height="8" fill="#7DCFC6"></rect><rect x="112" y="64" width="8" height="8" fill="#3D7E78"></rect><rect x="120" y="64" width="8" height="8" fill="#0E0C20"></rect><rect x="0" y="72" width="8" height="8" fill="#0E0C20"></rect><rect x="8" y="72" width="8" height="8" fill="#7DCFC6"></rect><rect x="16" y="72" width="8" height="8" fill="#7DCFC6"></rect><rect x="24" y="72" width="8" height="8" fill="#7DCFC6"></rect><rect x="32" y="72" width="8" height="8" fill="#7DCFC6"></rect><rect x="40" y="72" width="8" height="8" fill="#7DCFC6"></rect><rect x="48" y="72" width="8" height="8" fill="#7DCFC6"></rect><rect x="56" y="72" width="8" height="8" fill="#7DCFC6"></rect><rect x="64" y="72" width="8" height="8" fill="#E27D60"></rect><rect x="72" y="72" width="8" height="8" fill="#E27D60"></rect><rect x="80" y="72" width="8" height="8" fill="#7DCFC6"></rect><rect x="88" y="72" width="8" height="8" fill="#7DCFC6"></rect><rect x="96" y="72" width="8" height="8" fill="#7DCFC6"></rect><rect x="104" y="72" width="8" height="8" fill="#7DCFC6"></rect><rect x="112" y="72" width="8" height="8" fill="#3D7E78"></rect><rect x="120" y="72" width="8" height="8" fill="#0E0C20"></rect><rect x="0" y="80" width="8" height="8" fill="#0E0C20"></rect><rect x="8" y="80" width="8" height="8" fill="#7DCFC6"></rect><rect x="16" y="80" width="8" height="8" fill="#7DCFC6"></rect><rect x="24" y="80" width="8" height="8" fill="#7DCFC6"></rect><rect x="32" y="80" width="8" height="8" fill="#7DCFC6"></rect><rect x="40" y="80" width="8" height="8" fill="#7DCFC6"></rect><rect x="48" y="80" width="8" height="8" fill="#7DCFC6"></rect><rect x="56" y="80" width="8" height="8" fill="#0E0C20"></rect><rect x="64" y="80" width="8" height="8" fill="#E27D60"></rect><rect x="72" y="80" width="8" height="8" fill="#E27D60"></rect><rect x="80" y="80" width="8" height="8" fill="#0E0C20"></rect><rect x="88" y="80" width="8" height="8" fill="#7DCFC6"></rect><rect x="96" y="80" width="8" height="8" fill="#7DCFC6"></rect><rect x="104" y="80" width="8" height="8" fill="#7DCFC6"></rect><rect x="112" y="80" width="8" height="8" fill="#3D7E78"></rect><rect x="120" y="80" width="8" height="8" fill="#0E0C20"></rect><rect x="0" y="88" width="8" height="8" fill="#0E0C20"></rect><rect x="8" y="88" width="8" height="8" fill="#7DCFC6"></rect><rect x="16" y="88" width="8" height="8" fill="#7DCFC6"></rect><rect x="24" y="88" width="8" height="8" fill="#7DCFC6"></rect><rect x="32" y="88" width="8" height="8" fill="#7DCFC6"></rect><rect x="40" y="88" width="8" height="8" fill="#7DCFC6"></rect><rect x="48" y="88" width="8" height="8" fill="#7DCFC6"></rect><rect x="56" y="88" width="8" height="8" fill="#0E0C20"></rect><rect x="64" y="88" width="8" height="8" fill="#0E0C20"></rect><rect x="72" y="88" width="8" height="8" fill="#0E0C20"></rect><rect x="80" y="88" width="8" height="8" fill="#0E0C20"></rect><rect x="88" y="88" width="8" height="8" fill="#7DCFC6"></rect><rect x="96" y="88" width="8" height="8" fill="#7DCFC6"></rect><rect x="104" y="88" width="8" height="8" fill="#7DCFC6"></rect><rect x="112" y="88" width="8" height="8" fill="#3D7E78"></rect><rect x="120" y="88" width="8" height="8" fill="#0E0C20"></rect><rect x="0" y="96" width="8" height="8" fill="#0E0C20"></rect><rect x="8" y="96" width="8" height="8" fill="#E8B14A"></rect><rect x="16" y="96" width="8" height="8" fill="#E8B14A"></rect><rect x="24" y="96" width="8" height="8" fill="#E8B14A"></rect><rect x="32" y="96" width="8" height="8" fill="#E8B14A"></rect><rect x="40" y="96" width="8" height="8" fill="#E8B14A"></rect><rect x="48" y="96" width="8" height="8" fill="#E8B14A"></rect><rect x="56" y="96" width="8" height="8" fill="#E8B14A"></rect><rect x="64" y="96" width="8" height="8" fill="#E8B14A"></rect><rect x="72" y="96" width="8" height="8" fill="#E8B14A"></rect><rect x="80" y="96" width="8" height="8" fill="#E8B14A"></rect><rect x="88" y="96" width="8" height="8" fill="#E8B14A"></rect><rect x="96" y="96" width="8" height="8" fill="#E8B14A"></rect><rect x="104" y="96" width="8" height="8" fill="#E8B14A"></rect><rect x="112" y="96" width="8" height="8" fill="#E8B14A"></rect><rect x="120" y="96" width="8" height="8" fill="#0E0C20"></rect><rect x="0" y="104" width="8" height="8" fill="#0E0C20"></rect><rect x="8" y="104" width="8" height="8" fill="#7DCFC6"></rect><rect x="16" y="104" width="8" height="8" fill="#7DCFC6"></rect><rect x="24" y="104" width="8" height="8" fill="#7DCFC6"></rect><rect x="32" y="104" width="8" height="8" fill="#7DCFC6"></rect><rect x="40" y="104" width="8" height="8" fill="#7DCFC6"></rect><rect x="48" y="104" width="8" height="8" fill="#7DCFC6"></rect><rect x="56" y="104" width="8" height="8" fill="#7DCFC6"></rect><rect x="64" y="104" width="8" height="8" fill="#7DCFC6"></rect><rect x="72" y="104" width="8" height="8" fill="#7DCFC6"></rect><rect x="80" y="104" width="8" height="8" fill="#7DCFC6"></rect><rect x="88" y="104" width="8" height="8" fill="#7DCFC6"></rect><rect x="96" y="104" width="8" height="8" fill="#7DCFC6"></rect><rect x="104" y="104" width="8" height="8" fill="#7DCFC6"></rect><rect x="112" y="104" width="8" height="8" fill="#3D7E78"></rect><rect x="120" y="104" width="8" height="8" fill="#0E0C20"></rect><rect x="8" y="112" width="8" height="8" fill="#0E0C20"></rect><rect x="16" y="112" width="8" height="8" fill="#0E0C20"></rect><rect x="24" y="112" width="8" height="8" fill="#0E0C20"></rect><rect x="32" y="112" width="8" height="8" fill="#0E0C20"></rect><rect x="40" y="112" width="8" height="8" fill="#0E0C20"></rect><rect x="48" y="112" width="8" height="8" fill="#0E0C20"></rect><rect x="56" y="112" width="8" height="8" fill="#0E0C20"></rect><rect x="64" y="112" width="8" height="8" fill="#0E0C20"></rect><rect x="72" y="112" width="8" height="8" fill="#0E0C20"></rect><rect x="80" y="112" width="8" height="8" fill="#0E0C20"></rect><rect x="88" y="112" width="8" height="8" fill="#0E0C20"></rect><rect x="96" y="112" width="8" height="8" fill="#0E0C20"></rect><rect x="104" y="112" width="8" height="8" fill="#3D7E78"></rect><rect x="112" y="112" width="8" height="8" fill="#0E0C20"></rect><rect x="24" y="120" width="8" height="8" fill="#0E0C20"></rect><rect x="32" y="120" width="8" height="8" fill="#0E0C20"></rect><rect x="88" y="120" width="8" height="8" fill="#0E0C20"></rect><rect x="96" y="120" width="8" height="8" fill="#0E0C20"></rect></svg>